<?xml version="1.0" encoding="utf-8"?>
<!-- Generator: Adobe Illustrator 19.0.0, SVG Export Plug-In . SVG Version: 6.00 Build 0)  -->
<svg version="1.1" xmlns="http://www.w3.org/2000/svg" xmlns:xlink="http://www.w3.org/1999/xlink" x="0px" y="0px"
	 viewBox="0 0 600 600" enable-background="new 0 0 600 600" xml:space="preserve">
<g id="SHADOW_1">
	<ellipse id="XMLID_33_" opacity="0.55" fill="#E1ECFF" cx="294.3" cy="391.6" rx="162.9" ry="8.6"/>
	<ellipse id="XMLID_38_" opacity="0.55" fill="#E1ECFF" cx="292" cy="399.8" rx="71.8" ry="6.5"/>
</g>
<g id="SHADOW_2">
	<ellipse id="XMLID_11_" fill="#DFE9F6" cx="335.5" cy="427.1" rx="14.7" ry="2.7"/>
</g>
<g id="SHADOW_3">
	<ellipse id="XMLID_30_" opacity="0.55" fill="#E1ECFF" cx="239.3" cy="448.9" rx="70.1" ry="8.6"/>
</g>
<g id="SHADOW_4">
	<ellipse id="XMLID_32_" opacity="0.55" fill="#E1ECFF" cx="453.1" cy="432.8" rx="39.1" ry="7.3"/>
</g>
<g id="LEAF_2">
	<path id="XMLID_16_" fill="#F95DB3" d="M305.6,185.6c0,0,16.7,2.7,25.9,24.5c9.2,21.8,4,34.5-11.3,18.9S306.1,193.9,305.6,185.6z"
		/>
</g>
<g id="LEAF_1">
	<path id="XMLID_19_" fill="#F95DB3" d="M382.9,185.7c0,0,17.9,5.4,24.8,28c7.3,24-9,36.7-19.6,17.5
		C379.1,214.8,381.7,194,382.9,185.7z"/>
</g>
<g id="FLOWER_STALK">
	<g id="XMLID_12_">
		<g id="XMLID_223_">
			<path id="XMLID_224_" fill="#1C3177" d="M295.4,289.1c-2.1,0.4-4.1-1.1-4.4-3.2c-2.2-15.6-8.6-74,15.5-111
				c13-20,26.5-30.8,40-32.3c9-0.9,17.9,2.5,25.1,9.7c8.7,8.7,13.7,26,15.6,33.7c0.5,2.1-0.8,4.2-2.9,4.6h0c-2,0.4-3.9-0.8-4.4-2.8
				c-1.8-7-6.3-22.9-13.6-30.2c-3.9-3.9-10.4-8.4-19-7.5c-11,1.1-22.9,11.1-34.5,28.9c-22.4,34.4-16.4,91.1-14.4,105.9
				C298.8,286.9,297.4,288.7,295.4,289.1L295.4,289.1z"/>
		</g>
	</g>
</g>
<g id="LEAF_3">
	<path id="XMLID_6_" fill="#FF99CA" d="M266,238.4c4,5.3,18.9-0.3,25.6-14.6s7.8-30.2,7.8-30.2s-13.2,2.7-25.1,18.3
		C262.5,227.6,262.7,234.1,266,238.4z"/>
</g>
<g id="LEAF_4">
	<path id="XMLID_21_" fill="#FF99CA" d="M383.6,185.7c0,0,9.3,14.7,0.2,34.8c-9.6,21.2-28.7,20.1-24.4,0.2
		C363.2,203.8,377.7,190.8,383.6,185.7z"/>
</g>
<g id="LEAF_5">
	<path id="XMLID_22_" fill="#FF99CA" d="M383.5,185.8c0,0,16.5-5.5,33.8,8c18.4,14.3,12.7,32.7-5.6,23.7
		C396.2,210,387.1,192.8,383.5,185.8z"/>
</g>
<g id="PLANTS_POT_3">
	<g id="XMLID_27_">
		<g id="XMLID_231_">
			<g id="XMLID_233_">
				<path id="XMLID_235_" fill="#E0E7F4" d="M454,376.2l-45.7,17.6c0,0-12-5.2-20.9-12.5c-5-4.1-8.9-8.9-9.3-13.8l55.4-25.2
					c0,0,5.4,2.1,11.2,10.9c0.9,1.4,1.8,2.9,2.8,4.6C454.3,370.5,454,376.2,454,376.2z"/>
			</g>
			<path id="XMLID_232_" fill="#8EA6F4" d="M444.7,353.3l-57.3,28.1c-5-4.1-8.9-8.9-9.3-13.8l55.4-25.2
				C433.5,342.4,438.9,344.6,444.7,353.3z"/>
		</g>
	</g>
</g>
<g id="SOIL">
	<g id="XMLID_39_">
		<path id="XMLID_101_" fill="#FEC272" d="M438.3,393.7c0,0.3,0,0.5,0,0.5c0,0-2.1,0.2-5.9,0.4c-10.5,0.7-34.3,2-62.6,2.3
			c-36.2,0.3-112.5,0.7-128-1.1c-5.1-0.6-38.3-2.5-58.6-6.9c-9.7-2.1-16.5-4.8-15.8-8.2c1.1-5.2,7.8-9.3,14.2-12
			c6.4-2.7,12.6-4.2,12.7-4.2c-0.1-0.1-13.5-13-8.4-29.9c5.1-17,22.6-14.8,22.6-14.8s5.7-30.7,31.8-37.5s38,11.1,38,11.1
			s25.1-27.8,58.2-17.8c33.2,10,32.9,39.1,32.9,39.1s15.2-1.2,20.4,8.9c5.2,10.1-0.4,21.4-0.4,21.4s14.2-0.9,18.3,14.6
			c3.7,13.7-2.3,19.8-3.7,21c1.4-1.1,8.4-5.4,20.9-1.6C437.5,382.7,438.3,391.5,438.3,393.7z"/>
		<path id="XMLID_56_" fill="#F7A561" d="M432.4,395.1c-10.5,0.6-34.3,1.7-62.6,1.9c-36.2,0.3-112.5,0.6-128-0.9
			c-5.1-0.5-38.3-2.1-58.6-5.8c0-0.4,0-0.8,0-1.2c0.8-13.8,18.9-13.8,18.9-13.8s-13.2-10.2-7-21.5c7-12.7,24.5-12.7,24.5-12.7
			s-2.8-13.5,13.9-22c21.8-11.1,45.7,3.9,45.7,3.9s21.6-14.8,51.2-10s29.7,23.3,29.7,23.3s10.4-0.7,14.8,6.8
			c5.7,9.5-1.9,18.4-1.9,18.4s12.4-2.9,19.4,7.3c6.9,10,1.3,20.7,1.1,21.1c0.4-0.2,9-3.3,23.4-1.4
			C427.9,389.9,431.3,393.3,432.4,395.1z"/>
	</g>
</g>
<g id="TEARS">
	<path id="XMLID_23_" fill="#FFFFFF" d="M349.6,345.4c0,0-4.1,11.5-1.6,15.5C350.5,364.8,357.7,358.5,349.6,345.4z"/>
</g>
<g id="EYE_1">
	<circle id="XMLID_14_" fill="#1C3177" cx="268.3" cy="339.3" r="8.5"/>
</g>
<g id="EYE_2">
	<circle id="XMLID_24_" fill="#1C3177" cx="338.6" cy="339.3" r="8.5"/>
</g>
<g id="EYEBROW_1">
	<path id="XMLID_43_" fill="#1C3177" d="M250.5,319.4c-0.8-3.9,8.9-8.8,13.9-12.4c5-3.6,12.5-5,16.4,1.6c4,6.6-9.6,12.9-14.6,14
		C261.3,323.6,251.4,323.7,250.5,319.4"/>
</g>
<g id="EYEBROW_2">
	<path id="XMLID_25_" fill="#1C3177" d="M351.1,317.4c0.3-3.6-8.7-7.4-13.4-10.3c-4.7-3-11.5-3.8-14.3,2.4
		c-2.9,6.2,9.6,11,14.1,11.7C342,321.8,350.7,321.4,351.1,317.4"/>
</g>
<g id="SOIL_1">
	<g id="XMLID_10_">
		<path id="XMLID_103_" fill="#FEC272" d="M285.3,452.1c-0.3,0.1-0.7,0.1-1,0.2c-10.5,1.3-50.9,0.8-69.6-1.6
			c-6.3-0.8-11.5-2-15.6-3.4c-11-3.8-13.8-9.6-7.3-16.1c8.9-8.9,29.9-6.7,29.9-6.7s10.5-17.3,34.2-17.8c20-0.5,23.5,25.1,23.5,25.1
			s9.4-2.4,14.6,5.1C299.1,444.4,295.1,450.5,285.3,452.1z"/>
		<path id="XMLID_53_" fill="#F7A561" d="M285.3,452.1c-0.3,0.1-0.7,0.1-1,0.2c-10.5,1.3-50.9,0.8-69.6-1.6
			c-6.3-0.8-11.5-2-15.6-3.4c-0.4-0.2-0.7-0.4-1.1-0.7c0,0-7-7,4.9-11.9c11.9-4.9,25.3,0.3,25.3,0.3s5.4-17.8,25.3-17.8
			c20,0,17,21.8,17,21.8s11.7-5,17.5,3C290.4,445.1,289.8,449.2,285.3,452.1z"/>
	</g>
</g>
<g id="SOIL_2">
	<g id="XMLID_7_">
		<path id="XMLID_52_" fill="#FEC272" d="M345.5,426.4c-0.2,0.1-0.3,0.2-0.5,0.3c-3.6,1.8-14.3,2-19-0.3c-1.6-0.8-2.5-1.8-2.3-3.2
			c0.9-5.7,12.9-4.7,12.9-4.7C345.2,418.7,349.5,423.7,345.5,426.4z"/>
		<path id="XMLID_44_" fill="#F7A561" d="M345,426.7c-3.6,1.8-14.3,2-19-0.3c-0.3-0.3-0.4-0.7-0.3-1.2c0.8-4.1,10.9-3.4,10.9-3.4
			C342.8,422,346.3,424.7,345,426.7z"/>
	</g>
</g>
<g id="SOIL_3">
	<g id="XMLID_9_">
		<path id="XMLID_92_" fill="#FEC272" d="M479.7,430.3c-1.7,1.3-3.8,2.3-6.4,3.1c-9.4,2.8-23,2.3-31.6,0.9c-4.2-0.7-7.2-1.6-8-2.4
			c-2.3-2.5-4.4-10.5,1.3-13.7c5.7-3.2,10.7,1.4,10.7,1.4c6.1-11.3,20.7-22,33.8-10.3C486.1,415.1,487.1,424.7,479.7,430.3z"/>
		<path id="XMLID_45_" fill="#F7A561" d="M479.7,430.3c-1.7,1.3-3.8,2.3-6.4,3.1c-9.4,2.8-23,2.3-31.6,0.9c-4.2-2-8.5-6.9-3.9-10.4
			c4.5-3.5,10.8,2.2,10.8,2.2s14.7-13.9,26.2-9.6C483,419.6,480.6,427.8,479.7,430.3z"/>
	</g>
</g>
<g id="PLANTS_POT_1">
	<g id="XMLID_29_">
		<path id="XMLID_8_" fill="#BBD7FF" d="M111.4,243.4c-4.6-2-4-8.6,0.8-9.8c8.6-2.1,21.1-4.7,37.7-6.7c15.3-1.8,25.9-2.5,32.5-2.7
			c4.7-0.1,8.4,3.9,7.8,8.5l-2.2,17.5l-70.1-4.1L111.4,243.4z"/>
		<path id="XMLID_57_" fill="#99ADF9" d="M234.2,321.1l-3.2,24.7l-5.6,43.9l-0.6,4.8c0,0-16.7,2.2-34.7,1.8c-1.8,0-3.5-0.1-5.3-0.3
			c-16-1.3-30.6-6.6-30.6-6.6l-16.3-52.5l-8.1-26.2l-10.8-35L108,240.8c-1.1-3.7,2-7.3,5.8-6.7c7.3,1.2,18.9,2.7,32.6,3.5
			c6.2,0.4,12.7,0.5,19.5,0.5c20.3-0.2,34.1-1,41.6-1.6c3.6-0.3,6.6,2.8,6.3,6.4l-3.3,37.3l-1.5,16.2L234.2,321.1z"/>
		<path id="XMLID_51_" fill="#82A3F4" d="M184.7,396c-16-1.3-30.6-6.6-30.6-6.6l-16.3-52.5l-8.1-26.2l-10.8-35L108,240.8
			c-1.1-3.7,2-7.3,5.8-6.7c7.3,1.2,18.9,2.7,32.6,3.5L184.7,396z"/>
		<path id="XMLID_74_" fill="#E1ECFF" d="M213.8,242.9l-3.3,37.3c-11.2,0.8-25.8,1.5-41.9,1.3c-4,0-8-0.2-11.7-0.4
			c-16.1-0.9-29.3-3.4-38.1-5.5L108,240.8c-1.1-3.7,2-7.3,5.8-6.7c1.3,0.2,2.7,0.4,4.2,0.6c1.1,0.2,2.3,0.3,3.6,0.5
			c0.1,0,0.2,0,0.3,0c0.8,0.1,1.5,0.2,2.3,0.3c0.5,0.1,1,0.1,1.5,0.2c0.9,0.1,1.8,0.2,2.7,0.3c1.9,0.2,4,0.4,6.1,0.6
			c1.5,0.1,3,0.3,4.5,0.4l0.4,0c1.1,0.1,2.3,0.2,3.4,0.3c0.2,0,0.3,0,0.5,0c0.4,0,0.8,0.1,1.3,0.1c0.7,0,1.3,0.1,2,0.1
			c6.2,0.4,12.7,0.5,19.5,0.5c20.3-0.2,34.1-1,41.6-1.6C211.2,236.2,214.2,239.3,213.8,242.9z"/>
		<path id="XMLID_49_" fill="#E1ECFF" d="M231,345.8l-5.6,43.9c-8.7-16.2-26.2-43.8-49-53.5c-2.3-1-4.5-1.8-6.7-2.4
			c-13.7-3.9-24.4-1.1-31.9,3l-8.1-26.2c7.5-2.6,19.1-5.7,32.9-6.4c2.7-0.1,5.5-0.2,8.4-0.1C195.9,305,219.4,330.7,231,345.8z"/>
		<path id="XMLID_65_" fill="#D7E9FF" d="M156.9,281.1c-16.1-0.9-29.3-3.4-38.1-5.5L108,240.8c-1.1-3.7,2-7.3,5.8-6.7
			c1.3,0.2,2.7,0.4,4.2,0.6c1.1,0.2,2.3,0.3,3.6,0.5c0.1,0,0.2,0,0.3,0c0.8,0.1,1.5,0.2,2.3,0.3c0.5,0.1,1,0.1,1.5,0.2
			c0.9,0.1,1.8,0.2,2.7,0.3c1.9,0.2,4,0.4,6.1,0.6c1.5,0.1,3,0.3,4.5,0.4l0.4,0c1.1,0.1,2.3,0.2,3.4,0.3c0.2,0,0.3,0,0.5,0
			c0.4,0,0.8,0.1,1.3,0.1c0.7,0,1.3,0.1,2,0.1L156.9,281.1z"/>
		<path id="XMLID_46_" fill="#D7E9FF" d="M169.7,333.8c-13.7-3.9-24.4-1.1-31.9,3l-8.1-26.2c7.5-2.6,19.1-5.7,32.9-6.4L169.7,333.8z
			"/>
	</g>
</g>
<g id="PLANTS_POT_2">
	<g id="XMLID_28_">
		<g id="XMLID_93_">
			<path id="XMLID_96_" fill="#99ADF9" d="M353.2,399l-50.7,7.1l-11.1,1.6l-56.1-12.2l24.1-15.6l24.4-15.8
				c5.3-3.4,12.1-3.4,17.3,0.1L353.2,399z"/>
			<path id="XMLID_94_" fill="#E1ECFF" d="M302.5,406.1l-11.1,1.6l-56.1-12.2l24.1-15.6c8.2,1.4,19.4,4.6,29.5,12.4
				C294.8,396.7,299.2,401.6,302.5,406.1z"/>
		</g>
	</g>
</g>
</svg>
